<mxfile host="drawio-plugin" modified="2021-04-08T01:06:01.410Z" agent="5.0 (X11; Linux x86_64) AppleWebKit/537.36 (KHTML, like Gecko) Chrome/84.0.4147.105 Safari/537.36" etag="r8_MRSTu2S01tyDyErkI" version="13.7.9" type="embed"><diagram id="qCIqgVAHr9nJSiKCa2ky" name="Page-1"><mxGraphModel dx="786" dy="464" grid="1" gridSize="10" guides="1" tooltips="1" connect="1" arrows="1" fold="1" page="1" pageScale="1" pageWidth="850" pageHeight="1100" math="0" shadow="0"><root><mxCell id="0"/><mxCell id="1" parent="0"/><mxCell id="2" value="Game" style="rounded=0;whiteSpace=wrap;html=1;" parent="1" vertex="1"><mxGeometry x="40" y="40" width="80" height="360" as="geometry"/></mxCell><mxCell id="10" style="rounded=0;orthogonalLoop=1;jettySize=auto;html=1;edgeStyle=elbowEdgeStyle;" parent="1" source="3" target="2" edge="1"><mxGeometry relative="1" as="geometry"/></mxCell><mxCell id="3" value="ECS" style="rounded=0;whiteSpace=wrap;html=1;" parent="1" vertex="1"><mxGeometry x="160" y="40" width="80" height="30" as="geometry"/></mxCell><mxCell id="11" style="rounded=0;orthogonalLoop=1;jettySize=auto;html=1;edgeStyle=elbowEdgeStyle;" parent="1" source="4" target="2" edge="1"><mxGeometry relative="1" as="geometry"/></mxCell><mxCell id="4" value="Renderer" style="rounded=0;whiteSpace=wrap;html=1;" parent="1" vertex="1"><mxGeometry x="160" y="80" width="80" height="30" as="geometry"/></mxCell><mxCell id="12" style="rounded=0;orthogonalLoop=1;jettySize=auto;html=1;edgeStyle=elbowEdgeStyle;" parent="1" source="5" target="2" edge="1"><mxGeometry relative="1" as="geometry"/></mxCell><mxCell id="5" value="World" style="rounded=0;whiteSpace=wrap;html=1;" parent="1" vertex="1"><mxGeometry x="160" y="120" width="80" height="30" as="geometry"/></mxCell><mxCell id="13" style="rounded=0;orthogonalLoop=1;jettySize=auto;html=1;edgeStyle=elbowEdgeStyle;" parent="1" source="6" target="2" edge="1"><mxGeometry relative="1" as="geometry"/></mxCell><mxCell id="6" value="Player" style="rounded=0;whiteSpace=wrap;html=1;" parent="1" vertex="1"><mxGeometry x="160" y="160" width="80" height="30" as="geometry"/></mxCell><mxCell id="14" style="rounded=0;orthogonalLoop=1;jettySize=auto;html=1;edgeStyle=elbowEdgeStyle;" parent="1" source="7" target="2" edge="1"><mxGeometry relative="1" as="geometry"/></mxCell><mxCell id="7" value="Screens" style="rounded=0;whiteSpace=wrap;html=1;" parent="1" vertex="1"><mxGeometry x="160" y="200" width="80" height="30" as="geometry"/></mxCell><mxCell id="15" style="rounded=0;orthogonalLoop=1;jettySize=auto;html=1;edgeStyle=elbowEdgeStyle;" parent="1" source="8" target="2" edge="1"><mxGeometry relative="1" as="geometry"/></mxCell><mxCell id="8" value="Input" style="rounded=0;whiteSpace=wrap;html=1;" parent="1" vertex="1"><mxGeometry x="160" y="240" width="80" height="30" as="geometry"/></mxCell><mxCell id="16" style="rounded=0;orthogonalLoop=1;jettySize=auto;html=1;edgeStyle=elbowEdgeStyle;" parent="1" source="9" target="2" edge="1"><mxGeometry relative="1" as="geometry"/></mxCell><mxCell id="9" value="Log" style="rounded=0;whiteSpace=wrap;html=1;" parent="1" vertex="1"><mxGeometry x="160" y="280" width="80" height="30" as="geometry"/></mxCell><mxCell id="30" style="edgeStyle=elbowEdgeStyle;rounded=0;orthogonalLoop=1;jettySize=auto;html=1;endArrow=blockThin;endFill=1;" parent="1" source="25" target="28" edge="1"><mxGeometry relative="1" as="geometry"/></mxCell><mxCell id="54" value="" style="edgeStyle=elbowEdgeStyle;rounded=0;orthogonalLoop=1;jettySize=auto;html=1;endArrow=blockThin;endFill=1;" parent="1" source="25" target="31" edge="1"><mxGeometry relative="1" as="geometry"/></mxCell><mxCell id="55" value="depends" style="edgeLabel;html=1;align=center;verticalAlign=middle;resizable=0;points=[];" parent="54" vertex="1" connectable="0"><mxGeometry x="-0.0024" y="7" relative="1" as="geometry"><mxPoint x="-7" y="7" as="offset"/></mxGeometry></mxCell><mxCell id="58" value="" style="edgeStyle=elbowEdgeStyle;rounded=0;orthogonalLoop=1;jettySize=auto;html=1;endArrow=block;endFill=0;" parent="1" source="25" target="57" edge="1"><mxGeometry relative="1" as="geometry"/></mxCell><mxCell id="25" value="DirectorLoop" style="rounded=0;whiteSpace=wrap;html=1;fillColor=#fa6800;strokeColor=#C73500;fontColor=#ffffff;" parent="1" vertex="1"><mxGeometry x="80" y="850" width="400" height="30" as="geometry"/></mxCell><mxCell id="27" style="edgeStyle=elbowEdgeStyle;rounded=0;orthogonalLoop=1;jettySize=auto;html=1;endArrow=block;endFill=0;" parent="1" source="26" target="25" edge="1"><mxGeometry relative="1" as="geometry"/></mxCell><mxCell id="44" value="extends" style="edgeLabel;html=1;align=center;verticalAlign=middle;resizable=0;points=[];" parent="27" vertex="1" connectable="0"><mxGeometry y="-7" relative="1" as="geometry"><mxPoint x="7" y="-7" as="offset"/></mxGeometry></mxCell><mxCell id="45" style="edgeStyle=elbowEdgeStyle;rounded=0;orthogonalLoop=1;jettySize=auto;html=1;dashed=1;endArrow=blockThin;endFill=1;exitX=0.5;exitY=0;exitDx=0;exitDy=0;" parent="1" source="26" target="34" edge="1"><mxGeometry relative="1" as="geometry"><Array as="points"><mxPoint x="170" y="670"/></Array></mxGeometry></mxCell><mxCell id="46" value="proxy" style="edgeLabel;html=1;align=center;verticalAlign=middle;resizable=0;points=[];" parent="45" vertex="1" connectable="0"><mxGeometry x="-0.747" y="1" relative="1" as="geometry"><mxPoint x="1" y="-3.81" as="offset"/></mxGeometry></mxCell><mxCell id="26" value="BearLibTerminalEventLoop" style="rounded=0;whiteSpace=wrap;html=1;fillColor=#76608a;strokeColor=#432D57;fontColor=#ffffff;" parent="1" vertex="1"><mxGeometry x="80" y="710" width="180" height="30" as="geometry"/></mxCell><mxCell id="50" value="" style="edgeStyle=elbowEdgeStyle;rounded=0;orthogonalLoop=1;jettySize=auto;html=1;endArrow=blockThin;endFill=1;" parent="1" source="28" target="48" edge="1"><mxGeometry relative="1" as="geometry"/></mxCell><mxCell id="51" value="depends" style="edgeLabel;html=1;align=center;verticalAlign=middle;resizable=0;points=[];" parent="50" vertex="1" connectable="0"><mxGeometry x="0.0011" y="6" relative="1" as="geometry"><mxPoint x="-6" y="6" as="offset"/></mxGeometry></mxCell><mxCell id="28" value="BearLibTerminalContext" style="rounded=0;whiteSpace=wrap;html=1;fillColor=#fa6800;strokeColor=#C73500;fontColor=#ffffff;" parent="1" vertex="1"><mxGeometry x="300" y="790" width="180" height="30" as="geometry"/></mxCell><mxCell id="60" value="" style="edgeStyle=elbowEdgeStyle;rounded=0;orthogonalLoop=1;jettySize=auto;html=1;endArrow=block;endFill=0;" parent="1" source="31" target="59" edge="1"><mxGeometry relative="1" as="geometry"/></mxCell><mxCell id="62" value="" style="edgeStyle=elbowEdgeStyle;rounded=0;orthogonalLoop=1;jettySize=auto;html=1;endArrow=block;endFill=0;" parent="1" source="31" target="61" edge="1"><mxGeometry relative="1" as="geometry"/></mxCell><mxCell id="31" value="Scene" style="rounded=0;whiteSpace=wrap;html=1;fillColor=#fa6800;strokeColor=#C73500;fontColor=#ffffff;" parent="1" vertex="1"><mxGeometry x="580" y="850" width="220" height="30" as="geometry"/></mxCell><mxCell id="33" value="" style="edgeStyle=elbowEdgeStyle;rounded=0;orthogonalLoop=1;jettySize=auto;html=1;endArrow=block;endFill=0;" parent="1" source="32" target="28" edge="1"><mxGeometry relative="1" as="geometry"/></mxCell><mxCell id="43" value="extends" style="edgeLabel;html=1;align=center;verticalAlign=middle;resizable=0;points=[];" parent="33" vertex="1" connectable="0"><mxGeometry y="-7" relative="1" as="geometry"><mxPoint x="6.76" y="-5.24" as="offset"/></mxGeometry></mxCell><mxCell id="35" style="edgeStyle=elbowEdgeStyle;rounded=0;orthogonalLoop=1;jettySize=auto;html=1;endArrow=blockThin;endFill=1;dashed=1;" parent="1" source="32" target="34" edge="1"><mxGeometry relative="1" as="geometry"/></mxCell><mxCell id="41" value="proxy" style="edgeLabel;html=1;align=center;verticalAlign=middle;resizable=0;points=[];" parent="35" vertex="1" connectable="0"><mxGeometry y="6" relative="1" as="geometry"><mxPoint x="5.76" as="offset"/></mxGeometry></mxCell><mxCell id="32" value="NiceTerminal" style="rounded=0;whiteSpace=wrap;html=1;fillColor=#76608a;strokeColor=#432D57;fontColor=#ffffff;" parent="1" vertex="1"><mxGeometry x="300" y="710" width="180" height="30" as="geometry"/></mxCell><mxCell id="37" style="edgeStyle=elbowEdgeStyle;rounded=0;orthogonalLoop=1;jettySize=auto;html=1;endArrow=none;endFill=0;" parent="1" source="34" target="36" edge="1"><mxGeometry relative="1" as="geometry"/></mxCell><mxCell id="34" value="terminal" style="rounded=0;whiteSpace=wrap;html=1;fillColor=#6d8764;strokeColor=#3A5431;fontColor=#ffffff;" parent="1" vertex="1"><mxGeometry x="360" y="600" width="60" height="30" as="geometry"/></mxCell><mxCell id="36" value="bearlibterminal" style="shape=folder;fontStyle=1;spacingTop=10;tabWidth=40;tabHeight=14;tabPosition=left;html=1;fillColor=#6d8764;strokeColor=#3A5431;fontColor=#ffffff;" parent="1" vertex="1"><mxGeometry x="337.5" y="530" width="105" height="50" as="geometry"/></mxCell><mxCell id="40" style="edgeStyle=elbowEdgeStyle;rounded=0;orthogonalLoop=1;jettySize=auto;html=1;endArrow=blockThin;endFill=1;exitX=0.5;exitY=0;exitDx=0;exitDy=0;dashed=1;" parent="1" source="39" target="34" edge="1"><mxGeometry relative="1" as="geometry"><Array as="points"><mxPoint x="610" y="710"/></Array></mxGeometry></mxCell><mxCell id="42" value="proxy" style="edgeLabel;html=1;align=center;verticalAlign=middle;resizable=0;points=[];" parent="40" vertex="1" connectable="0"><mxGeometry x="-0.3493" relative="1" as="geometry"><mxPoint y="52.86" as="offset"/></mxGeometry></mxCell><mxCell id="39" value="TerminalState" style="rounded=0;whiteSpace=wrap;html=1;fillColor=#76608a;strokeColor=#432D57;fontColor=#ffffff;" parent="1" vertex="1"><mxGeometry x="520" y="710" width="180" height="30" as="geometry"/></mxCell><mxCell id="47" value="contextlib" style="shape=folder;fontStyle=1;spacingTop=10;tabWidth=40;tabHeight=14;tabPosition=left;html=1;fillColor=#6d8764;strokeColor=#3A5431;fontColor=#ffffff;" parent="1" vertex="1"><mxGeometry x="710" y="530" width="90" height="50" as="geometry"/></mxCell><mxCell id="49" value="" style="edgeStyle=elbowEdgeStyle;rounded=0;orthogonalLoop=1;jettySize=auto;html=1;endArrow=none;endFill=0;" parent="1" source="48" target="47" edge="1"><mxGeometry relative="1" as="geometry"/></mxCell><mxCell id="48" value="contextmanager" style="rounded=0;whiteSpace=wrap;html=1;fillColor=#6d8764;strokeColor=#3A5431;fontColor=#ffffff;" parent="1" vertex="1"><mxGeometry x="705" y="790" width="100" height="30" as="geometry"/></mxCell><mxCell id="57" value="Game" style="rounded=0;whiteSpace=wrap;html=1;fillColor=#a20025;strokeColor=#6F0000;fontColor=#ffffff;" parent="1" vertex="1"><mxGeometry x="80" y="960" width="400" height="30" as="geometry"/></mxCell><mxCell id="59" value="MainMenu" style="rounded=0;whiteSpace=wrap;html=1;fillColor=#a20025;strokeColor=#6F0000;fontColor=#ffffff;" parent="1" vertex="1"><mxGeometry x="580" y="960" width="100" height="30" as="geometry"/></mxCell><mxCell id="61" value="PlayerReady" style="rounded=0;whiteSpace=wrap;html=1;fillColor=#a20025;strokeColor=#6F0000;fontColor=#ffffff;" parent="1" vertex="1"><mxGeometry x="700" y="960" width="100" height="30" as="geometry"/></mxCell></root></mxGraphModel></diagram></mxfile>